<?xml version="1.0" encoding="UTF-8" standalone="no"?>
<!-- Created with Inkscape (http://www.inkscape.org/) -->

<svg
   xmlns:dc="http://purl.org/dc/elements/1.1/"
   xmlns:cc="http://creativecommons.org/ns#"
   xmlns:rdf="http://www.w3.org/1999/02/22-rdf-syntax-ns#"
   xmlns:svg="http://www.w3.org/2000/svg"
   xmlns="http://www.w3.org/2000/svg"
   xmlns:sodipodi="http://sodipodi.sourceforge.net/DTD/sodipodi-0.dtd"
   xmlns:inkscape="http://www.inkscape.org/namespaces/inkscape"
   id="svg2"
   version="1.1"
   inkscape:version="0.48.4 r9939"
   width="309.96164"
   height="130.45755"
   xml:space="preserve"
   sodipodi:docname="tututlogohackath.svg"
   inkscape:export-filename="/media/oriane/CORSAIR/tutut !/tututlogohapng.png"
   inkscape:export-xdpi="90"
   inkscape:export-ydpi="90"><metadata
     id="metadata8"><rdf:RDF><cc:Work
         rdf:about=""><dc:format>image/svg+xml</dc:format><dc:type
           rdf:resource="http://purl.org/dc/dcmitype/StillImage" /><dc:title></dc:title></cc:Work></rdf:RDF></metadata><defs
     id="defs6"><inkscape:path-effect
       effect="bend_path"
       id="path-effect5488"
       is_visible="true"
       bendpath="m 183.52215,149.16294 33.28112,0"
       prop_scale="1"
       scale_y_rel="false"
       vertical="false" /><clipPath
       clipPathUnits="userSpaceOnUse"
       id="clipPath16"><path
         d="m 0,704.022 595.28,0 L 595.28,0 0,0 0,704.022 z"
         id="path18"
         inkscape:connector-curvature="0" /></clipPath><clipPath
       clipPathUnits="userSpaceOnUse"
       id="clipPath24"><path
         d="m 334.275,506.93 157.707,0 0,-99.34 -157.707,0 0,99.34 z"
         id="path26"
         inkscape:connector-curvature="0" /></clipPath><clipPath
       clipPathUnits="userSpaceOnUse"
       id="clipPath40"><path
         d="m 401.304,504.91 159.94,0 0,-100.747 -159.94,0 0,100.747 z"
         id="path42"
         inkscape:connector-curvature="0" /></clipPath><clipPath
       clipPathUnits="userSpaceOnUse"
       id="clipPath76"><path
         d="m 312.401,633.481 162.172,0 0,-101.34 -162.172,0 0,101.34 z"
         id="path78"
         inkscape:connector-curvature="0" /></clipPath><clipPath
       clipPathUnits="userSpaceOnUse"
       id="clipPath92"><path
         d="m 381.895,631.461 164.406,0 0,-102.746 -164.406,0 0,102.746 z"
         id="path94"
         inkscape:connector-curvature="0" /></clipPath><clipPath
       clipPathUnits="userSpaceOnUse"
       id="clipPath132"><path
         d="m 336.412,379.032 157.707,0 0,-99.34 -157.707,0 0,99.34 z"
         id="path134"
         inkscape:connector-curvature="0" /></clipPath><clipPath
       clipPathUnits="userSpaceOnUse"
       id="clipPath148"><path
         d="m 403.439,377.012 159.942,0 0,-100.746 -159.942,0 0,100.746 z"
         id="path150"
         inkscape:connector-curvature="0" /></clipPath><clipPath
       clipPathUnits="userSpaceOnUse"
       id="clipPath184"><path
         d="m 89.4414,310.005 76.8146,0 0,-48.387 -76.8146,0 0,48.387 z"
         id="path186"
         inkscape:connector-curvature="0" /></clipPath><clipPath
       clipPathUnits="userSpaceOnUse"
       id="clipPath200"><path
         d="m 122.089,309.021 77.903,0 0,-49.072 -77.903,0 0,49.072 z"
         id="path202"
         inkscape:connector-curvature="0" /></clipPath><clipPath
       clipPathUnits="userSpaceOnUse"
       id="clipPath240"><path
         d="m 0,704.022 595.28,0 L 595.28,0 0,0 0,704.022 z"
         id="path242"
         inkscape:connector-curvature="0" /></clipPath><clipPath
       clipPathUnits="userSpaceOnUse"
       id="clipPath256"><path
         d="m 0,704.022 595.28,0 L 595.28,0 0,0 0,704.022 z"
         id="path258"
         inkscape:connector-curvature="0" /></clipPath><clipPath
       clipPathUnits="userSpaceOnUse"
       id="clipPath264"><path
         d="m 402.441,113.437 52.925,0 0,-33.3374 -52.925,0 0,33.3374 z"
         id="path266"
         inkscape:connector-curvature="0" /></clipPath><clipPath
       clipPathUnits="userSpaceOnUse"
       id="clipPath280"><path
         d="m 424.936,112.759 53.674,0 0,-33.8098 -53.674,0 0,33.8098 z"
         id="path282"
         inkscape:connector-curvature="0" /></clipPath><clipPath
       clipPathUnits="userSpaceOnUse"
       id="clipPath320"><path
         d="m 0,704.022 595.28,0 L 595.28,0 0,0 0,704.022 z"
         id="path322"
         inkscape:connector-curvature="0" /></clipPath><clipPath
       clipPathUnits="userSpaceOnUse"
       id="clipPath330"><path
         d="m 122.134,96.4189 36.017,0 0,-22.6865 -36.017,0 0,22.6865 z"
         id="path332"
         inkscape:connector-curvature="0" /></clipPath><clipPath
       clipPathUnits="userSpaceOnUse"
       id="clipPath346"><path
         d="m 137.442,95.958 36.527,0 0,-23.0088 -36.527,0 0,23.0088 z"
         id="path348"
         inkscape:connector-curvature="0" /></clipPath><clipPath
       clipPathUnits="userSpaceOnUse"
       id="clipPath386"><path
         d="m 0,704.022 595.28,0 L 595.28,0 0,0 0,704.022 z"
         id="path388"
         inkscape:connector-curvature="0" /></clipPath><clipPath
       clipPathUnits="userSpaceOnUse"
       id="clipPath3538"><rect
         style="fill:#0e0a0a;fill-opacity:1;fill-rule:evenodd;stroke:#000000;stroke-width:1.51520002;stroke-linejoin:miter;stroke-miterlimit:4;stroke-opacity:1;stroke-dasharray:none"
         id="rect3540"
         width="284.80463"
         height="143.81224"
         x="294.20413"
         y="-531.07135"
         transform="scale(1,-1)"
         rx="22.75107"
         ry="22.75107" /></clipPath><clipPath
       clipPathUnits="userSpaceOnUse"
       id="clipPath5230"><path
         style="fill:#000000;fill-opacity:1;stroke:#000000;stroke-width:0.80000001px;stroke-linecap:butt;stroke-linejoin:miter;stroke-opacity:1"
         d="m 452.447,504.19185 c 0,0 32.92856,2.13823 46.61316,-4.27643 13.68459,-6.41465 27.36919,-15.82281 37.20499,-31.64563 l 23.94805,1.28293 -24.37569,-17.10575 c 0,0 0.85529,-23.5204 -24.80334,-35.92207 -25.65861,-12.40166 -60.29775,-16.25045 -79.54172,-8.98051 0,0 -26.94155,0 -51.74488,14.53988 -24.80333,14.53989 -20.95454,33.78386 -20.95454,33.78386 l -24.37569,15.82281 24.80334,-0.42765 c 0,0 16.6781,26.30008 38.91556,31.64564 22.01772,5.29272 29.93506,4.9179 53.88311,1.28292"
         id="path5232"
         inkscape:connector-curvature="0"
         sodipodi:nodetypes="cscccscscccsc" /></clipPath></defs><sodipodi:namedview
     pagecolor="#ffffff"
     bordercolor="#666666"
     borderopacity="1"
     objecttolerance="10"
     gridtolerance="10"
     guidetolerance="10"
     inkscape:pageopacity="0"
     inkscape:pageshadow="2"
     inkscape:window-width="1533"
     inkscape:window-height="876"
     id="namedview4"
     showgrid="false"
     inkscape:zoom="3.3552539"
     inkscape:cx="154.98082"
     inkscape:cy="65.228775"
     inkscape:window-x="67"
     inkscape:window-y="24"
     inkscape:window-maximized="1"
     inkscape:current-layer="g10"
     showguides="true"
     inkscape:guide-bbox="true"
     fit-margin-top="1"
     fit-margin-left="1"
     fit-margin-right="1"
     fit-margin-bottom="1" /><g
     id="g10"
     inkscape:groupmode="layer"
     inkscape:label="logo-bullr-tutut"
     transform="matrix(1.25,0,0,-1.25,-219.22306,237.53325)"><g
       id="g20"
       transform="translate(-148.51199,-317.70286)"
       style="fill:#1f3966;fill-opacity:0.82549018"><g
         id="g22"
         style="fill:#1f3966;fill-opacity:0.82549018" /><g
         id="g28"
         style="fill:#1f3966;fill-opacity:0.82549018"><g
           clip-path="url(#clipPath24)"
           id="g30"
           style="opacity:0.64999401999999995;fill:#1f3966;fill-opacity:0.82549018"><g
             transform="translate(334.2754,472.106)"
             id="g32"
             style="fill:#1f3966;fill-opacity:0.82549018"><path
               d="m 0,0 25.238,-0.86 c 0,0 13.748,25.778 42.966,32.654 29.219,6.876 68.593,3.438 83.278,-24.92 14.686,-28.358 1.796,-54.406 -22.049,-66.813 C 106.805,-71.71 24.048,-61.99 24.693,-16.552 L 0,0 z"
               style="fill:#1f3966;fill-opacity:0.82549018;fill-rule:nonzero;stroke:none"
               id="path34"
               inkscape:connector-curvature="0" /></g></g></g></g><g
       id="g36"
       transform="translate(-148.51199,-317.70286)"
       style="fill:#00b256;fill-opacity:0.8254902"><g
         id="g38"
         style="fill:#00b256;fill-opacity:0.8254902" /><g
         id="g44"
         style="fill:#00b256;fill-opacity:0.8254902"><g
           clip-path="url(#clipPath40)"
           id="g46"
           style="opacity:0.64999402;fill:#00b256;fill-opacity:0.8254902"><g
             transform="translate(561.2441,469.5933)"
             id="g48"
             style="fill:#00b256;fill-opacity:0.8254902"><path
               d="m 0,0 -25.594,-0.873 c 0,0 -13.945,26.144 -43.575,33.117 -29.633,6.973 -69.563,3.488 -84.457,-25.273 -14.895,-28.76 -1.822,-55.177 22.362,-67.758 22.948,-11.94 106.877,-2.081 106.224,44.001 L 0,0 z"
               style="fill:#00b256;fill-opacity:0.8254902;fill-rule:nonzero;stroke:none"
               id="path50"
               inkscape:connector-curvature="0" /></g></g></g></g><g
       id="g52"
       transform="matrix(1.1099664,0,0,1.1099664,241.30398,115.78518)"><path
         d="m 0,0 0.228,2.972 c -0.212,0.742 -0.547,7.3 -1.006,19.681 -0.462,12.384 -0.693,19.932 -0.695,22.652 -3.34,0.155 -5.405,0.5 -6.185,1.04 -0.783,0.54 -1.169,1.092 -1.157,1.659 0.011,0.567 0.33,1.022 0.961,1.364 0.629,0.34 1.244,0.506 1.838,0.495 L 5.783,48.817 7.186,48.833 C 8.999,48.796 9.893,48.082 9.864,46.695 9.849,45.988 9.541,45.417 8.936,44.993 8.334,44.563 7.663,44.359 6.926,44.375 L 2.944,45.047 2.755,44.16 C 2.646,38.662 2.963,30.423 3.708,19.44 4.45,8.455 4.765,0.203 4.655,-5.325 4.64,-6.031 4.364,-6.635 3.832,-7.134 3.295,-7.635 2.674,-7.876 1.97,-7.861 L 0.013,-7.822 0,0 z"
         style="fill:#ffffff;fill-opacity:1;fill-rule:nonzero;stroke:none"
         id="path54"
         inkscape:connector-curvature="0" /></g><g
       id="g56"
       transform="matrix(1.1099664,0,0,1.1099664,282.26984,149.07984)"><path
         d="m 0,0 0.055,-1.488 c -0.465,-2.032 -0.813,-5.532 -1.039,-10.5 -0.226,-4.97 -0.556,-8.977 -0.985,-12.015 -0.431,-3.038 -0.979,-5.705 -1.649,-8 -0.67,-2.296 -1.707,-4.196 -3.11,-5.7 -1.407,-1.502 -2.951,-2.235 -4.638,-2.201 -1.686,0.035 -3.059,0.366 -4.123,0.997 -1.065,0.631 -1.925,1.528 -2.583,2.687 -0.654,1.161 -1.199,2.403 -1.625,3.731 -0.427,1.329 -0.738,2.858 -0.928,4.589 -0.337,3.041 -0.473,6.244 -0.405,9.618 l 0.93,22.938 c 0.101,5.014 -0.171,9.17 -0.813,12.472 l 0.044,2.081 c 1.385,-0.028 2.473,-0.587 3.259,-1.68 0.786,-1.091 1.166,-2.305 1.138,-3.635 l -0.842,-42.114 c -0.047,-2.239 0.471,-4.298 1.554,-6.174 1.078,-1.881 2.712,-2.84 4.896,-2.884 2.465,-0.05 4.25,7.085 5.359,21.404 l 0.006,0.383 0.056,0.55 c 0.997,13.076 1.58,23.665 1.742,31.766 l -0.013,1.446 c 0.013,0.681 0.178,1.186 0.496,1.521 0.321,0.334 0.918,0.492 1.798,0.476 0.877,-0.019 1.523,-0.273 1.939,-0.765 0.416,-0.491 0.653,-0.981 0.713,-1.48 0.062,-0.496 0.084,-1.171 0.069,-2.02 L 0.527,7.259 0,0 z"
         style="fill:#ffffff;fill-opacity:1;fill-rule:nonzero;stroke:none"
         id="path58"
         inkscape:connector-curvature="0" /></g><g
       id="g60"
       transform="matrix(1.1099664,0,0,1.1099664,300.26661,114.60318)"><path
         d="m 0,0 0.229,2.973 c -0.21,0.74 -0.548,7.299 -1.009,19.682 -0.46,12.38 -0.69,19.93 -0.69,22.652 -3.344,0.151 -5.408,0.496 -6.19,1.036 -0.78,0.541 -1.167,1.095 -1.156,1.661 0.011,0.565 0.333,1.021 0.964,1.362 0.629,0.343 1.241,0.508 1.837,0.495 L 5.782,48.817 7.188,48.832 C 8.998,48.794 9.893,48.082 9.864,46.694 9.849,45.986 9.541,45.417 8.935,44.992 8.334,44.563 7.663,44.359 6.926,44.374 L 2.943,45.047 2.757,44.159 C 2.646,38.661 2.962,30.423 3.707,19.438 4.449,8.454 4.767,0.203 4.654,-5.323 4.64,-6.031 4.364,-6.635 3.829,-7.135 3.296,-7.634 2.676,-7.875 1.967,-7.862 L 0.014,-7.825 0,0 z"
         style="fill:#ffffff;fill-opacity:1;fill-rule:nonzero;stroke:none"
         id="path62"
         inkscape:connector-curvature="0" /></g><g
       id="g64"
       transform="matrix(1.1099664,0,0,1.1099664,341.23136,147.89784)"><path
         d="m 0,0 0.058,-1.49 c -0.467,-2.031 -0.812,-5.531 -1.042,-10.499 -0.226,-4.97 -0.554,-8.975 -0.983,-12.014 -0.429,-3.038 -0.979,-5.705 -1.648,-8.001 -0.67,-2.297 -1.708,-4.195 -3.113,-5.7 -1.405,-1.502 -2.951,-2.234 -4.636,-2.2 -1.686,0.033 -3.061,0.366 -4.123,0.997 -1.067,0.631 -1.927,1.526 -2.583,2.686 -0.659,1.162 -1.199,2.405 -1.625,3.731 -0.429,1.328 -0.738,2.858 -0.931,4.589 -0.336,3.04 -0.467,6.245 -0.398,9.617 l 0.925,22.939 c 0.1,5.015 -0.171,9.172 -0.811,12.472 l 0.039,2.082 c 1.39,-0.027 2.477,-0.587 3.264,-1.681 0.784,-1.092 1.166,-2.304 1.137,-3.636 l -0.844,-42.114 c -0.044,-2.237 0.472,-4.296 1.557,-6.173 1.08,-1.88 2.71,-2.839 4.892,-2.885 2.466,-0.048 4.253,7.086 5.361,21.405 l 0.009,0.382 0.051,0.552 c 1.001,13.076 1.584,23.664 1.745,31.765 l -0.014,1.447 c 0.014,0.681 0.178,1.187 0.497,1.521 0.32,0.334 0.918,0.493 1.795,0.476 0.879,-0.019 1.525,-0.275 1.94,-0.764 0.418,-0.491 0.653,-0.983 0.716,-1.481 0.059,-0.498 0.082,-1.171 0.066,-2.022 L 0.53,7.259 0,0 z"
         style="fill:#ffffff;fill-opacity:1;fill-rule:nonzero;stroke:none"
         id="path66"
         inkscape:connector-curvature="0" /></g><g
       id="g68"
       transform="matrix(1.1099664,0,0,1.1099664,359.22814,113.41895)"><path
         d="m 0,0 0.229,2.973 c -0.211,0.741 -0.547,7.3 -1.007,19.683 -0.461,12.38 -0.691,19.929 -0.695,22.65 -3.34,0.154 -5.402,0.5 -6.185,1.038 -0.784,0.541 -1.168,1.094 -1.156,1.661 0.012,0.567 0.332,1.022 0.961,1.364 0.629,0.342 1.245,0.506 1.838,0.495 L 5.783,48.818 7.188,48.833 C 9,48.797 9.893,48.083 9.865,46.696 9.851,45.987 9.542,45.418 8.939,44.994 8.333,44.563 7.664,44.36 6.929,44.375 L 2.945,45.048 2.756,44.159 C 2.648,38.662 2.964,30.422 3.707,19.44 4.45,8.455 4.766,0.204 4.655,-5.322 4.642,-6.028 4.366,-6.634 3.833,-7.134 3.296,-7.634 2.677,-7.875 1.968,-7.861 L 0.014,-7.822 0,0 z"
         style="fill:#ffffff;fill-opacity:1;fill-rule:nonzero;stroke:none"
         id="path70"
         inkscape:connector-curvature="0" /></g><g
       id="g88"
       transform="translate(-148.51199,-317.70286)"><g
         id="g90" /><g
         id="g96"><g
           clip-path="url(#clipPath92)"
           id="g98"
           style="opacity:0.64999402"><g
             transform="translate(542.8359,595.1445)"
             id="g100" /></g></g></g><path
       style="fill:#ffffff;fill-opacity:1;stroke:none"
       d="m 381.17363,159.68083 c 0,0 8.39716,-11.67397 5.99293,-33.10875 -2.40423,-21.43479 29.22196,17.32344 29.22196,17.32344 l -0.84855,44.86351 z"
       id="path5351"
       inkscape:connector-curvature="0"
       sodipodi:nodetypes="csccc" /><path
       style="opacity:0.66666667;fill:#00b256;fill-opacity:0.8254902;stroke:none"
       d="m 456.12355,661.82864 29.12527,-5.62654 -13.34036,19.13765 c 0,0 -6.96994,-7.94843 -15.78491,-13.51111 z"
       id="path5374"
       inkscape:connector-curvature="0"
       transform="matrix(0.8,0,0,-0.8,0,704.022)"
       sodipodi:nodetypes="cccc" /><path
       style="opacity:0.67901234;fill:#1f3966;fill-opacity:0.8254902;stroke:none"
       d="m 212.88415,124.75842 c 0,0 1.62664,-4.99453 6.58276,-10.48975 l -20.7374,-4.58715 z"
       id="path5468"
       inkscape:connector-curvature="0"
       sodipodi:nodetypes="cccc" /><path
       style="fill:#ffffff;fill-opacity:1;stroke:none"
       d="m 210.57692,131.54748 c 0,0 -1.55187,18.71204 4.88654,28.53905 9.19396,14.03281 -31.94131,1.63838 -31.94131,1.63838 l 7.08185,-29.35325 z"
       id="path5472"
       inkscape:connector-curvature="0"
       sodipodi:nodetypes="csccc"
       inkscape:original-d="m 210.99409,131.71719 c 0,0 -1.5758,18.71204 4.96189,28.53905 9.33572,14.03281 -32.43383,1.63838 -32.43383,1.63838 l 7.19105,-29.35325 z"
       inkscape:path-effect="#path-effect5488" /></g></svg>